<svg width="20" height="20" viewBox="0 0 20 20" fill="none" xmlns="http://www.w3.org/2000/svg">
                      <g filter="url(#filter0_ii_5527_8939)">
                        <rect width="20" height="20" rx="10" fill="#CEE3BA" />
                        <rect x="0.3125" y="0.3125" width="19.375" height="19.375" rx="9.6875"
                          stroke="url(#paint0_linear_5527_8939)" stroke-width="0.625" />
                        <path
                          d="M10 16.3594C10 16.6441 10.2312 16.877 10.5152 16.8557C12.1501 16.7329 13.694 16.0287 14.8614 14.8614C16.1507 13.572 16.875 11.8234 16.875 10C16.875 8.17664 16.1507 6.42795 14.8614 5.13864C13.694 3.9713 12.1501 3.26711 10.5152 3.14431C10.2312 3.12299 10 3.35585 10 3.64062C10 3.9254 10.2313 4.15389 10.515 4.17897C11.8761 4.29934 13.1583 4.89398 14.1322 5.86785C15.2281 6.96376 15.8438 8.45014 15.8438 10C15.8438 11.5499 15.2281 13.0362 14.1322 14.1322C13.1583 15.106 11.8761 15.7007 10.515 15.821C10.2313 15.8461 10 16.0746 10 16.3594Z"
                          fill="#3C531B" />
                        <path
                          d="M9.08935 3.70616C9.04857 3.42433 8.78644 3.22697 8.50845 3.28875C8.35984 3.32178 8.21237 3.35973 8.06628 3.40255C7.79301 3.48265 7.65872 3.78203 7.75907 4.04854C7.85942 4.31505 8.15639 4.44738 8.4307 4.3709C8.50567 4.35 8.58105 4.3306 8.65679 4.31271C8.93394 4.24726 9.13013 3.988 9.08935 3.70616Z"
                          fill="#3C531B" />
                        <path
                          d="M6.73806 4.54093C6.59199 4.29648 6.2741 4.21516 6.04128 4.37913C5.91682 4.46679 5.7953 4.55856 5.67693 4.65429C5.4555 4.83335 5.44673 5.16136 5.64189 5.36875C5.83704 5.57614 6.16207 5.58403 6.38585 5.40791C6.447 5.35977 6.50912 5.31287 6.57215 5.26721C6.80278 5.10017 6.88413 4.78539 6.73806 4.54093Z"
                          fill="#3C531B" />
                        <path
                          d="M4.9704 6.10837C4.74518 5.9341 4.41954 5.97443 4.26264 6.21208C4.17876 6.33913 4.09913 6.46892 4.02387 6.60125C3.88309 6.84879 3.99466 7.15737 4.25205 7.2792C4.50944 7.40104 4.81492 7.28974 4.95897 7.04409C4.99834 6.97695 5.03904 6.91061 5.08106 6.8451C5.2348 6.60539 5.19563 6.28264 4.9704 6.10837Z"
                          fill="#3C531B" />
                        <path
                          d="M3.89187 8.23015C3.61835 8.1509 3.33034 8.30813 3.27181 8.58682C3.24052 8.73581 3.21418 8.88579 3.19285 9.03652C3.15294 9.31848 3.37015 9.56442 3.65431 9.58309C3.93846 9.60176 4.18163 9.38595 4.22527 9.10454C4.23719 9.02763 4.25065 8.95097 4.26564 8.87459C4.32048 8.59515 4.16539 8.30941 3.89187 8.23015Z"
                          fill="#3C531B" />
                        <path
                          d="M3.66234 10.5251C3.37854 10.5486 3.16556 10.7982 3.21027 11.0795C3.23418 11.2298 3.26307 11.3793 3.29689 11.5277C3.36018 11.8054 3.65082 11.9577 3.92295 11.8738C4.19508 11.7899 4.34527 11.5015 4.28567 11.2231C4.26938 11.147 4.25462 11.0705 4.24138 10.9938C4.19295 10.7132 3.94614 10.5016 3.66234 10.5251Z"
                          fill="#3C531B" />
                        <path
                          d="M4.28474 12.7888C4.02881 12.9137 3.9209 13.2236 4.06461 13.4694C4.14144 13.6008 4.2226 13.7297 4.30798 13.8557C4.46769 14.0915 4.79378 14.128 5.01693 13.951C5.24007 13.7741 5.27541 13.4509 5.11883 13.213C5.07604 13.148 5.03455 13.0822 4.99439 13.0155C4.84744 12.7716 4.54066 12.6639 4.28474 12.7888Z"
                          fill="#3C531B" />
                        <path
                          d="M5.6158 14.6066C5.41947 14.8128 5.42639 15.1409 5.6468 15.3212C5.76463 15.4176 5.88563 15.5101 6.00959 15.5984C6.24149 15.7637 6.55983 15.6842 6.70728 15.4406C6.85473 15.1969 6.77516 14.8817 6.54547 14.7133C6.4827 14.6673 6.42085 14.6201 6.35997 14.5716C6.13719 14.3942 5.81212 14.4003 5.6158 14.6066Z"
                          fill="#3C531B" />
                        <path
                          d="M7.57778 15.88C7.46932 16.1433 7.59437 16.4467 7.86506 16.5351C8.00977 16.5824 8.15601 16.6248 8.30353 16.6624C8.5795 16.7327 8.84756 16.5434 8.89695 16.263C8.94635 15.9825 8.75819 15.7174 8.48318 15.6435C8.40802 15.6233 8.33327 15.6016 8.25898 15.5784C7.98714 15.4935 7.68625 15.6167 7.57778 15.88Z"
                          fill="#3C531B" />
                        <path
                          d="M12.8612 8.26839L8.99663 12.133C8.9624 12.1675 8.91581 12.1869 8.8672 12.1869C8.8186 12.1869 8.772 12.1675 8.73778 12.133L6.77267 10.1679C6.73816 10.1336 6.71875 10.087 6.71875 10.0384C6.71875 9.98984 6.73816 9.94324 6.77267 9.90902L7.02788 9.65381C7.06211 9.6193 7.1087 9.59989 7.15731 9.59989C7.20591 9.59989 7.25251 9.6193 7.28673 9.65381L8.86538 11.2325L12.3472 7.75068C12.4193 7.68076 12.5339 7.68076 12.606 7.75068L12.8612 8.00954C12.8957 8.04377 12.9151 8.09036 12.9151 8.13896C12.9151 8.18757 12.8957 8.23416 12.8612 8.26839Z"
                          fill="#3C531B" />
                      </g>
                      <defs>
                        <filter id="filter0_ii_5527_8939" x="0" y="-0.625" width="20" height="21.25"
                          filterUnits="userSpaceOnUse" color-interpolation-filters="sRGB">
                          <feFlood flood-opacity="0" result="BackgroundImageFix" />
                          <feBlend mode="normal" in="SourceGraphic" in2="BackgroundImageFix" result="shape" />
                          <feColorMatrix in="SourceAlpha" type="matrix"
                            values="0 0 0 0 0 0 0 0 0 0 0 0 0 0 0 0 0 0 127 0" result="hardAlpha" />
                          <feOffset dy="1.25" />
                          <feGaussianBlur stdDeviation="0.3125" />
                          <feComposite in2="hardAlpha" operator="arithmetic" k2="-1" k3="1" />
                          <feColorMatrix type="matrix" values="0 0 0 0 1 0 0 0 0 1 0 0 0 0 1 0 0 0 1 0" />
                          <feBlend mode="normal" in2="shape" result="effect1_innerShadow_5527_8939" />
                          <feColorMatrix in="SourceAlpha" type="matrix"
                            values="0 0 0 0 0 0 0 0 0 0 0 0 0 0 0 0 0 0 127 0" result="hardAlpha" />
                          <feOffset dy="-1.25" />
                          <feGaussianBlur stdDeviation="0.3125" />
                          <feComposite in2="hardAlpha" operator="arithmetic" k2="-1" k3="1" />
                          <feColorMatrix type="matrix" values="0 0 0 0 1 0 0 0 0 1 0 0 0 0 1 0 0 0 1 0" />
                          <feBlend mode="normal" in2="effect1_innerShadow_5527_8939"
                            result="effect2_innerShadow_5527_8939" />
                        </filter>
                        <linearGradient id="paint0_linear_5527_8939" x1="10" y1="0" x2="10" y2="20"
                          gradientUnits="userSpaceOnUse">
                          <stop stop-color="#3C531B" stop-opacity="0.2" />
                          <stop offset="0.5" stop-color="#3C531B" />
                          <stop offset="1" stop-color="#3C531B" stop-opacity="0.2" />
                        </linearGradient>
                      </defs>
                    </svg>