<svg width="20" height="20" viewBox="0 0 20 20" fill="none" xmlns="http://www.w3.org/2000/svg">
                      <g filter="url(#filter0_ii_5527_8928)">
                        <rect width="20" height="20" rx="10" fill="#FBE6AD" />
                        <rect x="0.3125" y="0.3125" width="19.375" height="19.375" rx="9.6875"
                          stroke="url(#paint0_linear_5527_8928)" stroke-width="0.625" />
                        <rect x="3.125" y="3.125" width="13.75" height="13.75" rx="6.875"
                          fill="url(#paint1_linear_5527_8928)" />
                        <path fill-rule="evenodd" clip-rule="evenodd"
                          d="M12.881 6.87889L13.121 7.11903C13.2234 7.22128 13.281 7.36001 13.2811 7.50471V7.78123C13.2829 7.92845 13.2252 8.07016 13.121 8.17419L12.4481 8.8364C12.414 8.87084 12.3675 8.89021 12.319 8.89021C12.2705 8.89021 12.224 8.87084 12.1898 8.8364L11.1677 7.79942C11.0984 7.72868 11.0984 7.61547 11.1677 7.54473L11.8261 6.87889C11.9301 6.7747 12.0718 6.71697 12.2189 6.71879H12.4954C12.6401 6.71892 12.7787 6.7765 12.881 6.87889ZM11.7571 9.52029C11.8264 9.44955 11.8264 9.33634 11.7571 9.2656L10.7168 8.23954C10.6826 8.2051 10.6361 8.18573 10.5876 8.18573C10.5391 8.18573 10.4927 8.2051 10.4585 8.23954L7.52305 11.1758C7.45208 11.2462 7.39636 11.3304 7.35936 11.4232L6.73371 13.0023C6.69827 13.0843 6.72756 13.1799 6.80283 13.2279C6.85438 13.2794 6.93167 13.2952 6.99925 13.2679L8.57793 12.6276C8.67074 12.5906 8.75494 12.5348 8.82527 12.4638L11.7571 9.52029Z"
                          fill="#CE9206" />
                      </g>
                      <defs>
                        <filter id="filter0_ii_5527_8928" x="0" y="-0.625" width="20" height="21.25"
                          filterUnits="userSpaceOnUse" color-interpolation-filters="sRGB">
                          <feFlood flood-opacity="0" result="BackgroundImageFix" />
                          <feBlend mode="normal" in="SourceGraphic" in2="BackgroundImageFix" result="shape" />
                          <feColorMatrix in="SourceAlpha" type="matrix"
                            values="0 0 0 0 0 0 0 0 0 0 0 0 0 0 0 0 0 0 127 0" result="hardAlpha" />
                          <feOffset dy="1.25" />
                          <feGaussianBlur stdDeviation="0.3125" />
                          <feComposite in2="hardAlpha" operator="arithmetic" k2="-1" k3="1" />
                          <feColorMatrix type="matrix" values="0 0 0 0 1 0 0 0 0 1 0 0 0 0 1 0 0 0 1 0" />
                          <feBlend mode="normal" in2="shape" result="effect1_innerShadow_5527_8928" />
                          <feColorMatrix in="SourceAlpha" type="matrix"
                            values="0 0 0 0 0 0 0 0 0 0 0 0 0 0 0 0 0 0 127 0" result="hardAlpha" />
                          <feOffset dy="-1.25" />
                          <feGaussianBlur stdDeviation="0.3125" />
                          <feComposite in2="hardAlpha" operator="arithmetic" k2="-1" k3="1" />
                          <feColorMatrix type="matrix" values="0 0 0 0 1 0 0 0 0 1 0 0 0 0 1 0 0 0 1 0" />
                          <feBlend mode="normal" in2="effect1_innerShadow_5527_8928"
                            result="effect2_innerShadow_5527_8928" />
                        </filter>
                        <linearGradient id="paint0_linear_5527_8928" x1="10" y1="0" x2="10" y2="20"
                          gradientUnits="userSpaceOnUse">
                          <stop stop-color="#CE9206" stop-opacity="0.2" />
                          <stop offset="0.5" stop-color="#CE9206" />
                          <stop offset="1" stop-color="#CE9206" stop-opacity="0.2" />
                        </linearGradient>
                        <linearGradient id="paint1_linear_5527_8928" x1="10" y1="3.125" x2="10" y2="16.875"
                          gradientUnits="userSpaceOnUse">
                          <stop stop-color="#FFD97F" />
                          <stop offset="1" stop-color="#FFE3A1" />
                        </linearGradient>
                      </defs>
                    </svg>